# xmcd
#
# Track frame offsets: 
#        150
#        15389
#        28421
#        41664
#        55876
#        69046
#        82558
#        96324
#        109111
#        124098
#        136061
#        150624
#        164715
#        178402
#        191995
#        204907
#        217957
#        232892
#        245773
#        261122
#        276098
#        289875
#        304942
#        320479
#
# Disc length: 4430 seconds
#
# Revision: 1
# Processed by: cddbd v1.5.2PL0 Copyright (c) Steve Scherf et al.
# Submitted via: ExactAudioCopyFreeDBPlugin 1.0
#
DISCID=59114c18
DTITLE=Big Bill Broonzy - All The Sides [JSP Records]
DYEAR=2007
DGENRE=Blues
TTITLE0=Five Feet Seven
TTITLE1=I Wonder
TTITLE2=Keep Your Hands Off Her
TTITLE3=Mindin' My Own Business
TTITLE4=Hey, Hey
TTITLE5=Stump Blues
TTITLE6=Get Back
TTITLE7=Willie Mae Blues
TTITLE8=Walkin' the Lonesome Road
TTITLE9=Mopper's Blues
TTITLE10=I Know She Will
TTITLE11=Hollerin' the Blues
TTITLE12=Leavin' Day
TTITLE13=South Bound Train
TTITLE14=Tomorrow
TTITLE15=You Changed
TTITLE16=John Henry
TTITLE17=Crawdad
TTITLE18=Bill Bailey
TTITLE19=Make My Get Away
TTITLE20=Blue Tail Fly
TTITLE21=Backwater Blues
TTITLE22=In the Evenin'
TTITLE23=Trouble in Mind
EXTD=
EXTT0=
EXTT1=
EXTT2=
EXTT3=
EXTT4=
EXTT5=
EXTT6=
EXTT7=
EXTT8=
EXTT9=
EXTT10=
EXTT11=
EXTT12=
EXTT13=
EXTT14=
EXTT15=
EXTT16=
EXTT17=
EXTT18=
EXTT19=
EXTT20=
EXTT21=
EXTT22=
EXTT23=
PLAYORDER=
